<svg xmlns="http://www.w3.org/2000/svg" width="193" height="48" viewBox="0 0 193 48">
  <rect width="193" height="48" rx="2" fill="#FC4C02"/>
  <path d="m 64.47,26.59 c -0.64,-0.75 -1.51,-1.12 -2.66,-1.12 -1.05,0 -1.91,0.36 -2.6,1.09 -0.69,0.72 -1.03,1.66 -1.03,2.8 0,1.13 0.35,2.06 1.06,2.79 0.7,0.73 1.58,1.09 2.62,1.09 1.34,0 2.26,-0.45 2.75,-1.36 h 0 v 1.21 h 1.74 v -7.27 h -1.74 v 0.77 h 0 v 0 z m -0.94,4.78 c -0.42,0.44 -0.97,0.66 -1.65,0.66 -0.67,0 -1.21,-0.22 -1.62,-0.66 -0.41,-0.44 -0.62,-1.03 -0.62,-1.77 0,-0.74 0.2,-1.33 0.61,-1.77 0.4,-0.44 0.95,-0.66 1.62,-0.66 0.68,0 1.23,0.22 1.65,0.66 0.42,0.44 0.63,1.03 0.63,1.77 0,0.74 -0.21,1.33 -0.63,1.77 z" fill="#FFFFFF"/>
  <path d="m 70.94,26.6 c -0.71,-0.75 -1.63,-1.13 -2.75,-1.13 -1.12,0 -2.03,0.38 -2.72,1.13 -0.71,0.75 -1.05,1.69 -1.05,2.81 0,1.12 0.35,2.06 1.05,2.81 0.7,0.75 1.6,1.12 2.72,1.12 1.12,0 2.04,-0.37 2.75,-1.12 0.71,-0.75 1.06,-1.69 1.06,-2.81 0,-1.12 -0.35,-2.05 -1.06,-2.81 z m -1.13,4.78 c -0.42,0.44 -0.96,0.66 -1.63,0.66 -0.67,0 -1.21,-0.22 -1.6,-0.66 -0.39,-0.44 -0.59,-1.03 -0.59,-1.77 0,-0.74 0.2,-1.33 0.59,-1.77 0.39,-0.44 0.93,-0.66 1.6,-0.66 0.67,0 1.21,0.22 1.63,0.66 0.42,0.44 0.63,1.03 0.63,1.77 0,0.74 -0.21,1.33 -0.63,1.77 z" fill="#FFFFFF"/>
  <path d="m 80.76,32.5 v 0.78 h 1.74 v -11.18 h -1.75 v 4.91 h 0 c -0.64,-0.75 -1.51,-1.12 -2.62,-1.12 -1.05,0 -1.91,0.38 -2.6,1.13 -0.69,0.75 -1.03,1.68 -1.03,2.79 0,1.11 0.34,2.04 1.03,2.79 0.69,0.75 1.56,1.12 2.6,1.12 1.15,0 2.04,-0.39 2.66,-1.15 h 0 V 32.5 z m -0.94,-1.12 c -0.42,0.44 -0.97,0.66 -1.65,0.66 -0.67,0 -1.21,-0.22 -1.62,-0.66 -0.41,-0.44 -0.62,-1.03 -0.62,-1.77 0,-0.74 0.2,-1.33 0.61,-1.77 0.4,-0.44 0.95,-0.66 1.62,-0.66 0.68,0 1.23,0.22 1.65,0.66 0.42,0.44 0.63,1.03 0.63,1.77 0,0.74 -0.21,1.33 -0.63,1.77 z" fill="#FFFFFF"/>
  <path d="m 89.78,32.5 v 0.78 h 1.74 v -11.18 h -1.75 v 4.91 h 0 c -0.64,-0.75 -1.51,-1.12 -2.62,-1.12 -1.05,0 -1.91,0.38 -2.6,1.13 -0.69,0.75 -1.03,1.68 -1.03,2.79 0,1.11 0.34,2.04 1.03,2.79 0.69,0.75 1.56,1.12 2.6,1.12 1.15,0 2.04,-0.39 2.66,-1.15 h 0 V 32.5 z m -0.94,-1.12 c -0.42,0.44 -0.97,0.66 -1.65,0.66 -0.67,0 -1.21,-0.22 -1.62,-0.66 -0.41,-0.44 -0.62,-1.03 -0.62,-1.77 0,-0.74 0.2,-1.33 0.61,-1.77 0.4,-0.44 0.95,-0.66 1.62,-0.66 0.68,0 1.23,0.22 1.65,0.66 0.42,0.44 0.63,1.03 0.63,1.77 0,0.74 -0.21,1.33 -0.63,1.77 z" fill="#FFFFFF"/>
  <path d="m 97.48,26.59 c -0.64,-0.75 -1.51,-1.12 -2.62,-1.12 -1.05,0 -1.91,0.36 -2.6,1.09 -0.69,0.72 -1.03,1.66 -1.03,2.8 0,1.13 0.35,2.06 1.06,2.79 0.7,0.73 1.58,1.09 2.62,1.09 1.34,0 2.26,-0.45 2.75,-1.36 h 0 v 1.21 h 1.74 v -11.18 h -1.74 v 4.68 h 0 v 0 z m -0.94,4.78 c -0.42,0.44 -0.97,0.66 -1.65,0.66 -0.67,0 -1.21,-0.22 -1.62,-0.66 -0.41,-0.44 -0.62,-1.03 -0.62,-1.77 0,-0.74 0.2,-1.33 0.61,-1.77 0.4,-0.44 0.95,-0.66 1.62,-0.66 0.68,0 1.23,0.22 1.65,0.66 0.42,0.44 0.63,1.03 0.63,1.77 0,0.74 -0.21,1.33 -0.63,1.77 z" fill="#FFFFFF"/>
  <path d="m 102.75,31.83 c 0.24,0.24 0.51,0.42 0.83,0.53 0.32,0.11 0.66,0.17 1.01,0.17 0.68,0 1.24,-0.16 1.68,-0.49 0.44,-0.33 0.66,-0.77 0.66,-1.33 0,-0.78 -0.58,-1.31 -1.74,-1.59 l -0.34,-0.08 c -0.45,-0.11 -0.77,-0.22 -0.96,-0.33 -0.19,-0.12 -0.28,-0.28 -0.28,-0.49 0,-0.18 0.08,-0.32 0.25,-0.44 0.17,-0.12 0.39,-0.17 0.68,-0.17 0.55,0 1.05,0.2 1.51,0.61 l 0.97,-1.01 c -0.66,-0.6 -1.45,-0.91 -2.37,-0.91 -0.67,0 -1.21,0.18 -1.6,0.55 -0.4,0.37 -0.6,0.81 -0.6,1.33 0,0.3 0.05,0.56 0.15,0.77 0.1,0.21 0.24,0.39 0.41,0.53 0.17,0.14 0.36,0.26 0.57,0.35 0.21,0.09 0.45,0.18 0.72,0.26 l 0.35,0.08 c 0.19,0.05 0.35,0.09 0.48,0.14 0.13,0.05 0.24,0.1 0.34,0.16 0.09,0.06 0.16,0.13 0.2,0.22 0.04,0.09 0.06,0.19 0.06,0.31 0,0.27 -0.1,0.46 -0.3,0.57 -0.2,0.11 -0.44,0.17 -0.7,0.17 -0.75,0 -1.39,-0.31 -1.92,-0.92 l -1.07,1.01 c 0.31,0.33 0.66,0.6 1.05,0.8 z" fill="#FFFFFF"/>
  <path d="m 110.82,33.43 c 0.31,0.06 0.62,0.09 0.92,0.09 0.86,0 1.58,-0.27 2.17,-0.8 0.59,-0.53 0.88,-1.25 0.88,-2.15 v -5.09 h -1.74 v 0.77 h 0 c -0.49,-0.64 -1.27,-0.96 -2.32,-0.96 -0.84,0 -1.53,0.26 -2.06,0.78 -0.54,0.52 -0.8,1.2 -0.8,2.04 0,0.84 0.27,1.52 0.8,2.04 0.54,0.52 1.23,0.78 2.06,0.78 1.02,0 1.78,-0.32 2.28,-0.96 h 0 v 0.52 c 0,0.42 -0.14,0.77 -0.42,1.05 -0.28,0.28 -0.66,0.42 -1.14,0.42 -0.68,0 -1.28,-0.17 -1.8,-0.52 l -0.73,1.29 c 0.58,0.39 1.19,0.62 1.89,0.68 z m 2.23,-5.16 c -0.35,0.32 -0.82,0.49 -1.4,0.49 -0.58,0 -1.04,-0.16 -1.38,-0.48 -0.35,-0.32 -0.52,-0.74 -0.52,-1.26 0,-0.52 0.17,-0.94 0.52,-1.26 0.35,-0.32 0.8,-0.48 1.38,-0.48 0.58,0 1.04,0.16 1.39,0.48 0.35,0.32 0.52,0.73 0.52,1.24 0,0.53 -0.17,0.96 -0.52,1.28 z" fill="#FFFFFF"/>
  <path d="m 121.42,25.47 h -2.5 v -1.83 h -1.74 v 1.83 h -1.47 v 1.38 h 1.47 v 4.75 c 0,0.56 0.19,1.01 0.58,1.35 0.39,0.34 0.88,0.52 1.47,0.52 0.3,0 0.62,-0.03 0.95,-0.1 0.33,-0.07 0.63,-0.19 0.88,-0.36 l -0.42,-1.32 c -0.32,0.2 -0.68,0.3 -1.07,0.3 -0.4,0 -0.59,-0.24 -0.59,-0.73 v -4.41 h 2.5 v -1.38 z" fill="#FFFFFF"/>
  <path d="m 127.1,33.28 v -4.57 c 0,-0.58 -0.16,-1.06 -0.49,-1.45 -0.33,-0.39 -0.85,-0.59 -1.56,-0.59 -0.84,0 -1.55,0.23 -2.11,0.7 l 0.73,1.07 c 0.46,-0.29 0.93,-0.43 1.42,-0.43 0.3,0 0.54,0.07 0.72,0.22 0.18,0.15 0.27,0.36 0.27,0.64 v 0.1 c -0.53,-0.07 -0.98,-0.11 -1.34,-0.11 -0.69,0 -1.28,0.16 -1.76,0.48 -0.48,0.32 -0.72,0.78 -0.72,1.38 0,0.6 0.21,1.08 0.63,1.45 0.42,0.37 0.95,0.55 1.59,0.55 0.88,0 1.53,-0.28 1.93,-0.84 h 0 v 0.69 h 1.7 z m -1.72,-1.65 c -0.29,0.3 -0.67,0.45 -1.16,0.45 -0.33,0 -0.59,-0.07 -0.77,-0.2 -0.18,-0.13 -0.27,-0.3 -0.27,-0.51 0,-0.21 0.1,-0.38 0.29,-0.51 0.2,-0.13 0.47,-0.19 0.83,-0.19 0.41,0 0.8,0.05 1.18,0.15 -0.01,0.35 -0.12,0.62 -0.33,0.82 z" fill="#FFFFFF"/>
  <path d="m 133.41,25.47 h -2.5 v -1.83 h -1.74 v 1.83 h -1.47 v 1.38 h 1.47 v 4.75 c 0,0.56 0.19,1.01 0.58,1.35 0.39,0.34 0.88,0.52 1.47,0.52 0.3,0 0.62,-0.03 0.95,-0.1 0.33,-0.07 0.63,-0.19 0.88,-0.36 l -0.42,-1.32 c -0.32,0.2 -0.68,0.3 -1.07,0.3 -0.4,0 -0.59,-0.24 -0.59,-0.73 v -4.41 h 2.5 v -1.38 z" fill="#FFFFFF"/>
  <path d="m 135.08,25.47 v 7.81 h 1.74 v -4.57 c 0,-0.58 0.13,-1.06 0.4,-1.45 0.27,-0.39 0.67,-0.59 1.21,-0.59 0.88,0 1.32,0.55 1.32,1.66 v 4.94 h 1.74 v -5.24 c 0,-0.93 -0.23,-1.65 -0.7,-2.17 -0.47,-0.52 -1.08,-0.78 -1.83,-0.78 -1.02,0 -1.78,0.32 -2.28,0.96 h -0.01 v -0.57 h -1.74 z" fill="#FFFFFF"/>
  <path d="m 147.98,25.47 h -2.5 v -1.83 h -1.74 v 1.83 h -1.47 v 1.38 h 1.47 v 4.75 c 0,0.56 0.19,1.01 0.58,1.35 0.39,0.34 0.88,0.52 1.47,0.52 0.3,0 0.62,-0.03 0.95,-0.1 0.33,-0.07 0.63,-0.19 0.88,-0.36 l -0.42,-1.32 c -0.32,0.2 -0.68,0.3 -1.07,0.3 -0.4,0 -0.59,-0.24 -0.59,-0.73 v -4.41 h 2.5 v -1.38 z" fill="#FFFFFF"/>
  <path d="m 152.95,33.43 c 0.34,0.06 0.67,0.09 0.98,0.09 0.54,0 1.01,-0.06 1.41,-0.19 0.4,-0.13 0.74,-0.31 1.03,-0.55 0.29,-0.24 0.51,-0.54 0.66,-0.9 0.15,-0.36 0.22,-0.77 0.22,-1.23 0,-0.43 -0.07,-0.83 -0.22,-1.19 -0.15,-0.36 -0.36,-0.68 -0.64,-0.95 -0.28,-0.27 -0.63,-0.48 -1.03,-0.63 -0.41,-0.15 -0.87,-0.22 -1.38,-0.22 -0.52,0 -1,0.07 -1.44,0.22 -0.44,0.15 -0.82,0.36 -1.14,0.63 -0.32,0.27 -0.57,0.6 -0.75,0.98 -0.18,0.38 -0.27,0.8 -0.27,1.27 0,0.46 0.09,0.89 0.26,1.28 0.17,0.39 0.42,0.73 0.73,1.01 0.31,0.28 0.68,0.5 1.11,0.66 0.43,0.16 0.91,0.26 1.46,0.3 z m 0.01,-1.41 c -0.35,-0.03 -0.65,-0.12 -0.91,-0.29 -0.26,-0.16 -0.47,-0.37 -0.62,-0.62 -0.15,-0.25 -0.23,-0.54 -0.23,-0.86 0,-0.32 0.08,-0.6 0.23,-0.85 0.15,-0.25 0.36,-0.44 0.62,-0.58 0.26,-0.14 0.56,-0.21 0.88,-0.21 0.32,0 0.6,0.07 0.87,0.21 0.26,0.14 0.47,0.33 0.63,0.58 0.16,0.25 0.24,0.53 0.24,0.86 0,0.33 -0.08,0.61 -0.24,0.86 -0.16,0.25 -0.37,0.45 -0.65,0.61 -0.27,0.16 -0.55,0.25 -0.84,0.29 z" fill="#FFFFFF"/>
  <path d="m 161.88,28.62 v 4.65 h 1.74 v -4.32 c 0,-0.45 0.1,-0.8 0.29,-1.05 0.19,-0.25 0.46,-0.38 0.8,-0.38 0.62,0 0.94,0.39 0.94,1.18 v 4.58 h 1.74 v -4.32 c 0,-0.45 0.09,-0.8 0.28,-1.05 0.19,-0.25 0.46,-0.38 0.81,-0.38 0.62,0 0.94,0.39 0.94,1.18 v 4.58 h 1.74 v -4.88 c 0,-0.84 -0.22,-1.5 -0.66,-1.96 -0.44,-0.46 -1.03,-0.69 -1.78,-0.69 -0.44,0 -0.88,0.09 -1.33,0.27 -0.45,0.18 -0.79,0.44 -1.03,0.78 h -0.01 c -0.37,-0.7 -1.04,-1.05 -2.01,-1.05 -0.44,0 -0.88,0.08 -1.31,0.24 -0.43,0.16 -0.77,0.4 -1.03,0.72 h -0.01 v -0.81 h -1.74 v 7.81 h 1.74 v -4.65 z" fill="#FFFFFF"/>
  <path d="m 28.38,31.04 -2.18,-4.36 -2.19,4.36 -7.09,0.49 5.26,3.47 -1.69,6.58 5.7,-3.49 5.7,3.49 -1.69,-6.58 5.26,-3.47 z" fill="#FFFFFF"/>
  <path d="m 38.28,26.6 c -0.24,-0.24 -0.53,-0.42 -0.85,-0.55 l -1.16,-0.44 1.58,-3.17 -3.55,-6.87 c -0.3,-0.59 -0.91,-0.95 -1.59,-0.95 h -12.75 c -0.67,0 -1.29,0.36 -1.59,0.95 l -3.55,6.87 1.58,3.17 -1.16,0.44 c -0.32,0.12 -0.61,0.31 -0.85,0.55 -0.24,0.24 -0.42,0.52 -0.55,0.84 -0.12,0.32 -0.19,0.66 -0.19,1.01 0,0.35 0.06,0.69 0.19,1.01 0.12,0.32 0.31,0.61 0.55,0.84 0.24,0.24 0.53,0.42 0.85,0.55 l 6.11,2.34 0.82,3.93 0.06,0.27 c 0.12,0.55 0.45,1.02 0.93,1.33 0.33,0.21 0.72,0.33 1.13,0.33 0.28,0 0.55,-0.06 0.8,-0.16 l 6.51,-2.71 6.51,2.71 c 0.25,0.11 0.52,0.16 0.8,0.16 0.41,0 0.79,-0.12 1.13,-0.33 0.48,-0.31 0.82,-0.78 0.93,-1.33 l 0.06,-0.27 0.82,-3.93 6.11,-2.34 c 0.32,-0.12 0.61,-0.31 0.85,-0.55 0.24,-0.24 0.42,-0.52 0.55,-0.84 0.12,-0.32 0.19,-0.66 0.19,-1.01 0,-0.35 -0.06,-0.69 -0.19,-1.01 -0.12,-0.32 -0.31,-0.61 -0.55,-0.84 v 0 z m -4.01,-9.15 1.25,2.43 h -14.59 l 1.25,-2.43 h 12.08 z m -5.03,9.59 -3.01,3.02 -3.01,-3.02 3.01,-6.02 3.01,6.02 z" fill="#FFFFFF"/>
</svg> 