<svg xmlns="http://www.w3.org/2000/svg" width="120" height="42" viewBox="0 0 120 42">
  <g fill="none" fill-rule="evenodd">
    <rect width="120" height="42" fill="#FFF"/>
    <g fill="#999">
      <path d="M33.88,17.5 C33.88,16.73 34.37,16.23 35.1,16.23 C35.84,16.23 36.33,16.73 36.33,17.5 C36.33,18.23 35.84,18.75 35.1,18.75 C34.37,18.75 33.88,18.23 33.88,17.5 Z M34.1,19.8 L36.12,19.8 L36.12,27 L34.1,27 L34.1,19.8 Z"/>
      <path d="M41.52,27 L41.52,26.4 C41.07,26.88 40.34,27.15 39.5,27.15 C37.9,27.15 36.9,26.03 36.9,24.6 C36.9,23.15 37.9,22.1 39.5,22.1 C40.33,22.1 41.05,22.33 41.52,22.83 L41.52,22.25 L43.52,22.25 L43.52,27 L41.52,27 Z M38.9,24.58 C38.9,25.38 39.5,25.7 40.05,25.7 C40.58,25.7 41.02,25.53 41.3,25.13 C41.45,24.9 41.53,24.65 41.53,24.38 C41.53,24.1 41.45,23.85 41.3,23.65 C41.02,23.25 40.58,23.08 40.05,23.08 C39.5,23.08 38.9,23.4 38.9,24.58 Z"/>
      <path d="M47.5,22.25 L48.57,24.83 L49.65,22.25 L51.6,22.25 L49.15,27 L47.8,27 L45.38,22.25 L47.5,22.25 Z"/>
      <path d="M51.35,22.25 L53.37,22.25 L53.37,24.63 C53.37,25.4 53.95,25.7 54.5,25.7 C55.07,25.7 55.65,25.4 55.65,24.63 L55.65,22.25 L57.67,22.25 L57.67,24.93 C57.67,26.35 56.6,27.15 54.5,27.15 C52.4,27.15 51.35,26.35 51.35,24.93 L51.35,22.25 Z"/>
      <path d="M58.15,22.25 L60.17,22.25 L60.17,27 L58.15,27 L58.15,22.25 Z M58.15,19.25 L60.17,19.25 L60.17,21.05 L58.15,21.05 L58.15,19.25 Z"/>
      <path d="M61.05,22.25 L63.07,22.25 L63.07,22.7 C63.3,22.4 63.95,22.08 64.75,22.08 C66.15,22.08 67.17,23.03 67.17,24.65 C67.17,26.28 66.22,27.15 64.77,27.15 C64.05,27.15 63.4,26.9 63.07,26.55 L63.07,29.5 L61.05,29.5 L61.05,22.25 Z M65.15,24.63 C65.15,23.83 64.7,23.5 64.15,23.5 C63.6,23.5 63.07,23.83 63.07,24.63 C63.07,25.42 63.6,25.75 64.15,25.75 C64.7,25.75 65.15,25.43 65.15,24.63 Z"/>
      <path d="M70.1,27 L69.3,27 L66.73,19.5 L68.88,19.5 L70.45,24.25 L72.07,19.5 L73.95,19.5 L71.22,27 L70.1,27 Z"/>
      <path d="M74.3,26.05 L75.17,24.88 C75.85,25.48 76.67,25.75 77.47,25.75 C78.02,25.75 78.32,25.58 78.32,25.3 C78.32,25.03 78.07,24.9 77.45,24.8 L76.65,24.65 C75.37,24.43 74.62,23.83 74.62,22.7 C74.62,21.53 75.67,20.6 77.47,20.6 C78.57,20.6 79.55,20.9 80.25,21.45 L79.42,22.58 C78.9,22.18 78.15,21.98 77.45,21.98 C76.95,21.98 76.67,22.13 76.67,22.38 C76.67,22.63 76.9,22.73 77.5,22.83 L78.3,22.98 C79.67,23.2 80.37,23.83 80.37,24.9 C80.37,26.1 79.27,27.13 77.4,27.13 C76.15,27.13 75.05,26.78 74.3,26.05 Z"/>
      <path d="M81.12,25.05 L81.12,22.25 L80.22,22.25 L80.22,20.8 L81.12,20.8 L81.12,19.25 L83.15,19.25 L83.15,20.8 L84.62,20.8 L84.62,22.25 L83.15,22.25 L83.15,24.7 C83.15,25.13 83.35,25.35 83.72,25.35 C84,25.35 84.27,25.28 84.5,25.1 L84.97,26.43 C84.47,26.83 83.82,27.1 83.07,27.1 C81.9,27.1 81.12,26.43 81.12,25.05 Z"/>
      <path d="M85.3,25.05 L86.17,23.85 C86.75,24.35 87.62,24.73 88.47,24.73 C89.3,24.73 89.67,24.5 89.67,24.15 C89.67,23.8 89.35,23.65 88.47,23.53 L87.67,23.4 C86.15,23.15 85.35,22.53 85.35,21.33 C85.35,20.03 86.62,19.1 88.62,19.1 C89.8,19.1 90.9,19.43 91.7,20.05 L90.87,21.2 C90.25,20.78 89.47,20.53 88.67,20.53 C87.85,20.53 87.47,20.75 87.47,21.1 C87.47,21.43 87.77,21.58 88.65,21.7 L89.45,21.83 C91,22.08 91.77,22.73 91.77,23.9 C91.77,25.25 90.47,26.18 88.32,26.18 C87,26.18 85.85,25.83 85.3,25.05 Z"/>
      <path d="M32.7,32.53 C32.7,33.15 33.18,33.53 33.83,33.53 C34.25,33.53 34.65,33.38 34.9,33.05 L35.75,33.75 C35.3,34.35 34.57,34.7 33.8,34.7 C32.47,34.7 31.47,33.83 31.47,32.5 C31.47,31.18 32.47,30.28 33.72,30.28 C34.9,30.28 35.85,31.18 35.85,32.5 C35.85,32.5 35.85,32.53 35.85,32.53 L32.7,32.53 Z M32.7,31.63 L34.62,31.63 C34.57,31.08 34.17,30.78 33.7,30.78 C33.15,30.78 32.75,31.1 32.7,31.63 Z"/>
      <path d="M36.7,33.63 L37.7,32.98 C38,33.3 38.3,33.5 38.67,33.5 C39.05,33.5 39.3,33.28 39.3,32.88 L39.3,30.4 L36.9,30.4 L36.9,29.28 L40.7,29.28 L40.7,32.83 C40.7,33.93 39.95,34.7 38.75,34.7 C37.87,34.7 37.12,34.33 36.7,33.63 Z"/>
      <path d="M45.97,30.78 C45.52,30.78 45.15,30.98 44.9,31.28 C44.8,31.43 44.7,31.58 44.7,31.75 C44.7,31.93 44.8,32.08 44.9,32.2 C45.15,32.5 45.52,32.68 45.97,32.68 C46.8,32.68 47.35,32.08 47.35,31.75 C47.35,31.43 46.8,30.78 45.97,30.78 Z M46.45,34.58 L46.45,34.1 C46.07,34.48 45.6,34.7 44.95,34.7 C43.82,34.7 43.05,33.98 43.05,33.03 C43.05,32.08 43.82,31.38 44.95,31.38 C45.6,31.38 46.1,31.58 46.45,31.95 L46.45,31.5 L47.8,31.5 L47.8,34.58 L46.45,34.58 Z"/>
      <path d="M48.42,34.58 L49.77,34.58 L49.77,31.5 L48.42,31.5 L48.42,34.58 Z M48.42,30.7 L49.77,30.7 L49.77,29.28 L48.42,29.28 L48.42,30.7 Z"/>
      <path d="M51.35,29.28 L52.7,29.28 L52.7,31.9 C52.97,31.63 53.47,31.38 54.12,31.38 C55.17,31.38 55.9,32.08 55.9,33.05 L55.9,34.58 L54.52,34.58 L54.52,33.35 C54.52,32.8 54.22,32.53 53.8,32.53 C53.37,32.53 52.97,32.8 52.97,33.35 L52.97,34.58 L51.63,34.58 L51.63,29.28 L51.35,29.28 Z"/>
      <path d="M56.55,33.53 L57.52,32.8 C57.92,33.18 58.47,33.5 59.07,33.5 C59.65,33.5 59.9,33.33 59.9,33.08 C59.9,32.83 59.65,32.7 59.05,32.63 L58.47,32.53 C57.35,32.35 56.75,31.9 56.75,31.05 C56.75,30.15 57.65,29.5 59.07,29.5 C59.9,29.5 60.7,29.73 61.27,30.18 L60.35,30.9 C59.9,30.58 59.32,30.38 58.75,30.38 C58.2,30.38 57.95,30.55 57.95,30.78 C57.95,31.03 58.17,31.13 58.77,31.2 L59.35,31.28 C60.5,31.45 61.07,31.93 61.07,32.75 C61.07,33.7 60.15,34.38 58.85,34.38 C57.9,34.38 57.07,34.1 56.55,33.53 Z"/>
    </g>
    <g fill-rule="nonzero">
      <g transform="translate(36 3)">
        <path fill="#FC4C02" d="M21.5913636,15.1481818 L16.0365909,7.47545455 L13.4093182,11.1627273 L16.0365909,15.1481818 L21.5913636,15.1481818 Z M11.5547727,11.1636364 L13.4093182,7.89 L15.2638636,11.1636364 L13.4093182,14.2 L11.5547727,11.1636364 Z M16.0365909,3 L24,15.1481818 L8.07318182,15.1481818 L16.0365909,3 Z"/>
        <path fill="#999" d="M48,10.5 C48,16.299 43.299,21 37.5,21 C31.701,21 27,16.299 27,10.5 C27,4.701 31.701,0 37.5,0 C43.299,0 48,4.701 48,10.5 Z M29.997,10.5 C29.997,14.649 33.351,18.003 37.5,18.003 C41.649,18.003 45.003,14.649 45.003,10.5 C45.003,6.351 41.649,2.997 37.5,2.997 C33.351,2.997 29.997,6.351 29.997,10.5 Z M42.741,10.5 C42.741,13.401 40.401,15.741 37.5,15.741 C34.599,15.741 32.259,13.401 32.259,10.5 C32.259,7.599 34.599,5.259 37.5,5.259 C40.401,5.259 42.741,7.599 42.741,10.5 Z M34.497,10.5 C34.497,12.156 35.844,13.5 37.5,13.5 C39.156,13.5 40.5,12.156 40.5,10.5 C40.5,8.847 39.156,7.5 37.5,7.5 C35.844,7.5 34.497,8.844 34.497,10.5 Z"/>
        <path fill="#999" d="M6.15,10.5 C6.15,8.757 7.674,7.359 9.525,7.359 C10.815,7.359 11.91,8.046 12.513,9.09 L15,7.566 C13.866,5.472 11.835,4.209 9.525,4.209 C5.985,4.209 3,7.041 3,10.5 C3,13.959 5.985,16.791 9.525,16.791 C11.835,16.791 13.866,15.525 15,13.434 L12.513,11.91 C11.907,12.954 10.815,13.641 9.525,13.641 C7.674,13.641 6.15,12.243 6.15,10.5 Z"/>
        <path fill="#999" d="M18,4.5 L24,4.5 L24,7.2 L21,7.2 L21,16.2 L18,16.2 L18,4.5 Z"/>
      </g>
    </g>
  </g>
</svg> 